<?xml version="1.0" encoding="UTF-8"?>
<svg xmlns="http://www.w3.org/2000/svg" viewBox="0 0 640 640" fill="none">
  <g fill="#ffffff">
    <path d="M143.81,231.53c-12.17,9.57-22.92,40.5-22.72,54.81.34,24.39,13.46,46.41,37.02,46.16,30.76-.32,38.7-47.11,27.92-70.92-13.61-30.05-33.81-36.67-42.22-30.05Z"/>
    <path d="M607.27,380.16c-2.84-83.55-44.11-132.29-57.66-148.31-1.42-1.67-2.53-2.94-3.04-3.57-.37-1.07-.74-2.62-1.25-4.54-5.04-18.96-18.43-69.31-81.58-105.83-70.81-40.95-138.53-40.47-143.71-40.42-4.66-.05-72.64-.71-143.77,40.42-63.15,36.52-76.54,86.87-81.58,105.83-.49,1.87-.86,3.38-1.22,4.45-.68.9-1.75,2.11-3.07,3.67-13.56,16.02-54.83,64.75-57.66,148.31-1.66,48.93,14.56,113.74,65.06,148.91,24.68,17.18,67.25,26.62,96.21,29.48,36.88,3.64,83.11,3.97,110.82,3.97,3.39,0,6.51,0,9.3-.01h5.8s5.96,0,5.96,0c2.79,0,5.9.01,9.29.01,27.72,0,73.95-.33,110.82-3.97,28.96-2.86,71.54-12.29,96.21-29.48,50.5-35.17,66.72-99.98,65.06-148.91ZM527.58,508.06c-19.31,13.45-56.16,22.26-84.1,25.01-40.11,3.96-92.43,3.91-117.56,3.84h-6s-5.84,0-5.84,0c-25.17.04-77.44.12-117.56-3.84-27.94-2.76-64.78-11.56-84.09-25.01-42.08-29.29-55.53-84.83-54.1-127.04,2.53-74.66,38.19-116.77,51.61-132.62,2.99-3.53,4.79-5.66,6.02-7.86,1.45-2.62,2.26-5.64,3.47-10.22,4.7-17.67,15.7-59.04,69.66-90.24,65.61-37.95,129.9-37,130.54-36.99h.76c.66,0,64.94-.95,130.54,36.99,53.96,31.2,64.96,72.58,69.65,90.25,1.22,4.57,2.02,7.6,3.48,10.21,1.22,2.2,3.03,4.33,6.02,7.87,13.42,15.85,49.08,57.97,51.61,132.62,1.43,42.21-12.03,97.74-54.1,127.04Z"/>
    <path d="M496.19,231.53c-8.41-6.62-28.61,0-42.22,30.05-10.78,23.81-2.84,70.6,27.92,70.92,23.56.24,36.68-21.77,37.02-46.16.2-14.3-10.55-45.24-22.72-54.81Z"/>
    <path d="M405.91,317.88c-15.43-26.27-50.17-58.61-85.99-59.31-35.79.7-70.51,32.99-85.96,59.25,37.54,16.3,76.4,32.49,86.04,35.43,9.63-2.93,48.41-19.09,85.91-35.37Z"/>
    <path d="M320.52,372.73v.06c-.14,0-.31,0-.52-.01-.21.01-.37.01-.52.01v-.06c-3.62-.45-17.38-4.32-93.15-37.28-6.48,28.43,9.19,90.57,9.19,90.57h168.78s15.65-62.04,9.21-90.5c-75.63,32.91-89.38,36.77-93,37.22Z"/>
  </g>
</svg>
